<svg xmlns="http://www.w3.org/2000/svg" id="fig-hdd-delta" viewBox="0 0 1400 780" role="img" aria-label="HDD delta recall by disk model" style="font-family: 'Segoe UI', 'Helvetica Neue', Arial, sans-serif;"><rect x="0" y="0" width="1400" height="780" fill="#ffffff"/><text x="700" y="36" text-anchor="middle" font-size="28" font-weight="700" fill="#163043">HDD Delta Recall by Disk Model</text><text x="431" y="76" font-size="14" font-weight="700" fill="#163043">Models</text><rect x="501" y="66" width="18" height="12" rx="4" fill="#375a7f"/><text x="529" y="76" font-size="14" font-weight="600" fill="#4b6174">Qwen3-Instruct</text><rect x="657" y="66" width="18" height="12" rx="4" fill="#c97b2a"/><text x="685" y="76" font-size="14" font-weight="600" fill="#4b6174">Qwen3.5-4B</text><rect x="813" y="66" width="18" height="12" rx="4" fill="#2d936c"/><text x="841" y="76" font-size="14" font-weight="600" fill="#4b6174">Qwen3.5-Plus</text><rect x="34" y="108" width="1332" height="640" rx="22" fill="#ffffff" stroke="#d9e0e7" stroke-width="1.5"/><text x="58" y="142" font-size="24" font-weight="700" fill="#163043"><tspan x="58" dy="0">Disk-Model-Level Comparison</tspan></text><text x="58" y="188" font-size="15" fill="#4b6174"><tspan x="58" dy="0">Each group shows Delta Recall across</tspan><tspan x="58" dy="20">the three candidate models</tspan></text><line x1="92" y1="276" x2="92" y2="630" stroke="#163043" stroke-width="1.6"/><line x1="92" y1="630" x2="1338" y2="630" stroke="#d9e0e7" stroke-width="1"/><text x="80" y="635" text-anchor="end" font-size="13" fill="#4b6174">-100</text><line x1="92" y1="590.6666666666666" x2="1338" y2="590.6666666666666" stroke="#d9e0e7" stroke-width="1"/><text x="80" y="595.6666666666666" text-anchor="end" font-size="13" fill="#4b6174">-80</text><line x1="92" y1="551.3333333333334" x2="1338" y2="551.3333333333334" stroke="#d9e0e7" stroke-width="1"/><text x="80" y="556.3333333333334" text-anchor="end" font-size="13" fill="#4b6174">-60</text><line x1="92" y1="512" x2="1338" y2="512" stroke="#d9e0e7" stroke-width="1"/><text x="80" y="517" text-anchor="end" font-size="13" fill="#4b6174">-40</text><line x1="92" y1="472.66666666666663" x2="1338" y2="472.66666666666663" stroke="#d9e0e7" stroke-width="1"/><text x="80" y="477.66666666666663" text-anchor="end" font-size="13" fill="#4b6174">-20</text><line x1="92" y1="433.33333333333337" x2="1338" y2="433.33333333333337" stroke="#d9e0e7" stroke-width="1"/><text x="80" y="438.33333333333337" text-anchor="end" font-size="13" fill="#4b6174">0</text><line x1="92" y1="394" x2="1338" y2="394" stroke="#d9e0e7" stroke-width="1"/><text x="80" y="399" text-anchor="end" font-size="13" fill="#4b6174">20</text><line x1="92" y1="354.6666666666667" x2="1338" y2="354.6666666666667" stroke="#d9e0e7" stroke-width="1"/><text x="80" y="359.6666666666667" text-anchor="end" font-size="13" fill="#4b6174">40</text><line x1="92" y1="315.3333333333333" x2="1338" y2="315.3333333333333" stroke="#d9e0e7" stroke-width="1"/><text x="80" y="320.3333333333333" text-anchor="end" font-size="13" fill="#4b6174">60</text><line x1="92" y1="276" x2="1338" y2="276" stroke="#d9e0e7" stroke-width="1"/><text x="80" y="281" text-anchor="end" font-size="13" fill="#4b6174">80</text><line x1="92" y1="433.3333333333333" x2="1338" y2="433.3333333333333" stroke="#163043" stroke-width="1.8"/><rect x="106.76666666666665" y="433.3333333333333" width="20.766666666666666" height="59.00000000000006" rx="6" fill="#375a7f"/><text x="117.14999999999998" y="508.33333333333337" text-anchor="middle" font-size="10" fill="#375a7f">-30.0</text><rect x="133.5333333333333" y="433.3333333333333" width="20.766666666666666" height="59.00000000000006" rx="6" fill="#c97b2a"/><text x="143.91666666666663" y="508.33333333333337" text-anchor="middle" font-size="10" fill="#c97b2a">-30.0</text><rect x="160.29999999999995" y="433.3333333333333" width="20.766666666666666" height="59.00000000000006" rx="6" fill="#2d936c"/><text x="170.68333333333328" y="508.33333333333337" text-anchor="middle" font-size="10" fill="#2d936c">-30.0</text><rect x="210.59999999999997" y="295.6666666666667" width="20.766666666666666" height="137.66666666666663" rx="6" fill="#375a7f"/><text x="220.9833333333333" y="287.6666666666667" text-anchor="middle" font-size="10" fill="#375a7f">70.0</text><rect x="237.36666666666662" y="295.6666666666667" width="20.766666666666666" height="137.66666666666663" rx="6" fill="#c97b2a"/><text x="247.74999999999994" y="287.6666666666667" text-anchor="middle" font-size="10" fill="#c97b2a">70.0</text><rect x="264.13333333333327" y="295.6666666666667" width="20.766666666666666" height="137.66666666666663" rx="6" fill="#2d936c"/><text x="274.5166666666666" y="287.6666666666667" text-anchor="middle" font-size="10" fill="#2d936c">70.0</text><rect x="314.43333333333334" y="432.04556" width="20.766666666666666" height="1.2877733333332912" rx="6" fill="#375a7f"/><text x="324.81666666666666" y="425.3333333333333" text-anchor="middle" font-size="10" fill="#375a7f">0.7</text><rect x="341.2" y="432.04556" width="20.766666666666666" height="1.2877733333332912" rx="6" fill="#c97b2a"/><text x="351.5833333333333" y="415.3333333333333" text-anchor="middle" font-size="10" fill="#c97b2a">0.7</text><rect x="367.96666666666664" y="432.04556" width="20.766666666666666" height="1.2877733333332912" rx="6" fill="#2d936c"/><text x="378.34999999999997" y="405.3333333333333" text-anchor="middle" font-size="10" fill="#2d936c">0.7</text><rect x="418.2666666666667" y="427.71437000000003" width="20.766666666666666" height="5.618963333333284" rx="6" fill="#375a7f"/><text x="428.65000000000003" y="425.3333333333333" text-anchor="middle" font-size="10" fill="#375a7f">2.9</text><rect x="445.03333333333336" y="427.71437000000003" width="20.766666666666666" height="5.618963333333284" rx="6" fill="#c97b2a"/><text x="455.4166666666667" y="415.3333333333333" text-anchor="middle" font-size="10" fill="#c97b2a">2.9</text><rect x="471.8" y="421.15868333333333" width="20.766666666666666" height="12.174649999999986" rx="6" fill="#2d936c"/><text x="482.18333333333334" y="405.3333333333333" text-anchor="middle" font-size="10" fill="#2d936c">6.2</text><rect x="522.1" y="433.3333333333333" width="20.766666666666666" height="0" rx="6" fill="#375a7f"/><text x="532.4833333333333" y="425.3333333333333" text-anchor="middle" font-size="10" fill="#375a7f">0.0</text><rect x="548.8666666666667" y="433.3333333333333" width="20.766666666666666" height="0" rx="6" fill="#c97b2a"/><text x="559.25" y="415.3333333333333" text-anchor="middle" font-size="10" fill="#c97b2a">0.0</text><rect x="575.6333333333333" y="433.3333333333333" width="20.766666666666666" height="0" rx="6" fill="#2d936c"/><text x="586.0166666666667" y="405.3333333333333" text-anchor="middle" font-size="10" fill="#2d936c">0.0</text><rect x="625.9333333333333" y="433.3333333333333" width="20.766666666666666" height="45.88882333333339" rx="6" fill="#375a7f"/><text x="636.3166666666666" y="495.2221566666667" text-anchor="middle" font-size="10" fill="#375a7f">-23.3</text><rect x="652.6999999999999" y="433.3333333333333" width="20.766666666666666" height="45.88882333333339" rx="6" fill="#c97b2a"/><text x="663.0833333333333" y="495.2221566666667" text-anchor="middle" font-size="10" fill="#c97b2a">-23.3</text><rect x="679.4666666666666" y="433.3333333333333" width="20.766666666666666" height="45.88882333333339" rx="6" fill="#2d936c"/><text x="689.8499999999999" y="495.2221566666667" text-anchor="middle" font-size="10" fill="#2d936c">-23.3</text><rect x="729.7666666666667" y="378.23578999999995" width="20.766666666666666" height="55.09754333333336" rx="6" fill="#375a7f"/><text x="740.15" y="370.23578999999995" text-anchor="middle" font-size="10" fill="#375a7f">28.0</text><rect x="756.5333333333333" y="375.75248" width="20.766666666666666" height="57.58085333333332" rx="6" fill="#c97b2a"/><text x="766.9166666666666" y="367.75248" text-anchor="middle" font-size="10" fill="#c97b2a">29.3</text><rect x="783.3" y="381.48826333333335" width="20.766666666666666" height="51.845069999999964" rx="6" fill="#2d936c"/><text x="793.6833333333333" y="373.48826333333335" text-anchor="middle" font-size="10" fill="#2d936c">26.4</text><rect x="833.5999999999999" y="430.05548999999996" width="20.766666666666666" height="3.277843333333351" rx="6" fill="#375a7f"/><text x="843.9833333333332" y="425.3333333333333" text-anchor="middle" font-size="10" fill="#375a7f">1.7</text><rect x="860.3666666666666" y="430.05548999999996" width="20.766666666666666" height="3.277843333333351" rx="6" fill="#c97b2a"/><text x="870.7499999999999" y="415.3333333333333" text-anchor="middle" font-size="10" fill="#c97b2a">1.7</text><rect x="887.1333333333332" y="417.88103666666666" width="20.766666666666666" height="15.452296666666655" rx="6" fill="#2d936c"/><text x="897.5166666666665" y="405.3333333333333" text-anchor="middle" font-size="10" fill="#2d936c">7.9</text><rect x="937.4333333333333" y="410.6619933333333" width="20.766666666666666" height="22.671339999999987" rx="6" fill="#375a7f"/><text x="947.8166666666666" y="402.6619933333333" text-anchor="middle" font-size="10" fill="#375a7f">11.5</text><rect x="964.1999999999999" y="433.3333333333333" width="20.766666666666666" height="14.476830000000007" rx="6" fill="#c97b2a"/><text x="974.5833333333333" y="459.3333333333333" text-anchor="middle" font-size="10" fill="#c97b2a">-7.4</text><rect x="990.9666666666666" y="433.3333333333333" width="20.766666666666666" height="14.476830000000007" rx="6" fill="#2d936c"/><text x="1001.3499999999999" y="469.3333333333333" text-anchor="middle" font-size="10" fill="#2d936c">-7.4</text><rect x="1041.2666666666667" y="433.3333333333333" width="20.766666666666666" height="7.4817899999999895" rx="6" fill="#375a7f"/><text x="1051.65" y="449.3333333333333" text-anchor="middle" font-size="10" fill="#375a7f">-3.8</text><rect x="1068.0333333333333" y="433.3333333333333" width="20.766666666666666" height="7.4817899999999895" rx="6" fill="#c97b2a"/><text x="1078.4166666666667" y="459.3333333333333" text-anchor="middle" font-size="10" fill="#c97b2a">-3.8</text><rect x="1094.8" y="433.3333333333333" width="20.766666666666666" height="7.4817899999999895" rx="6" fill="#2d936c"/><text x="1105.1833333333334" y="469.3333333333333" text-anchor="middle" font-size="10" fill="#2d936c">-3.8</text><rect x="1145.1" y="433.3333333333333" width="20.766666666666666" height="177.00000000000006" rx="6" fill="#375a7f"/><text x="1155.4833333333333" y="626.3333333333334" text-anchor="middle" font-size="10" fill="#375a7f">-90.0</text><rect x="1171.8666666666666" y="433.3333333333333" width="20.766666666666666" height="177.00000000000006" rx="6" fill="#c97b2a"/><text x="1182.25" y="626.3333333333334" text-anchor="middle" font-size="10" fill="#c97b2a">-90.0</text><rect x="1198.6333333333332" y="433.3333333333333" width="20.766666666666666" height="177.00000000000006" rx="6" fill="#2d936c"/><text x="1209.0166666666667" y="626.3333333333334" text-anchor="middle" font-size="10" fill="#2d936c">-90.0</text><rect x="1248.9333333333332" y="374.33333333333337" width="20.766666666666666" height="58.99999999999994" rx="6" fill="#375a7f"/><text x="1259.3166666666666" y="366.33333333333337" text-anchor="middle" font-size="10" fill="#375a7f">30.0</text><rect x="1275.6999999999998" y="374.33333333333337" width="20.766666666666666" height="58.99999999999994" rx="6" fill="#c97b2a"/><text x="1286.0833333333333" y="366.33333333333337" text-anchor="middle" font-size="10" fill="#c97b2a">30.0</text><rect x="1302.4666666666665" y="374.33333333333337" width="20.766666666666666" height="58.99999999999994" rx="6" fill="#2d936c"/><text x="1312.85" y="366.33333333333337" text-anchor="middle" font-size="10" fill="#2d936c">30.0</text><text x="143.91666666666666" y="652" text-anchor="end" font-size="12" font-weight="700" letter-spacing="0" fill="#4b6174" transform="rotate(-22 143.91666666666666 652)" dominant-baseline="hanging">hds5c3030</text><text x="247.74999999999997" y="652" text-anchor="end" font-size="12" font-weight="700" letter-spacing="0" fill="#4b6174" transform="rotate(-22 247.74999999999997 652)" dominant-baseline="hanging">hds723030</text><text x="351.5833333333333" y="652" text-anchor="end" font-size="12" font-weight="700" letter-spacing="0" fill="#4b6174" transform="rotate(-22 351.5833333333333 652)" dominant-baseline="hanging">hgst-hms</text><text x="455.4166666666667" y="652" text-anchor="end" font-size="12" font-weight="700" letter-spacing="0" fill="#4b6174" transform="rotate(-22 455.4166666666667 652)" dominant-baseline="hanging">hi7</text><text x="559.25" y="652" text-anchor="end" font-size="12" font-weight="700" letter-spacing="0" fill="#4b6174" transform="rotate(-22 559.25 652)" dominant-baseline="hanging">hitachi-hds</text><text x="663.0833333333333" y="652" text-anchor="end" font-size="12" font-weight="700" letter-spacing="0" fill="#4b6174" transform="rotate(-22 663.0833333333333 652)" dominant-baseline="hanging">hms5c4040</text><text x="766.9166666666666" y="652" text-anchor="end" font-size="12" font-weight="700" letter-spacing="0" fill="#4b6174" transform="rotate(-22 766.9166666666666 652)" dominant-baseline="hanging">st3000</text><text x="870.7499999999999" y="652" text-anchor="end" font-size="12" font-weight="700" letter-spacing="0" fill="#4b6174" transform="rotate(-22 870.7499999999999 652)" dominant-baseline="hanging">st315003</text><text x="974.5833333333333" y="652" text-anchor="end" font-size="12" font-weight="700" letter-spacing="0" fill="#4b6174" transform="rotate(-22 974.5833333333333 652)" dominant-baseline="hanging">st315005</text><text x="1078.4166666666667" y="652" text-anchor="end" font-size="12" font-weight="700" letter-spacing="0" fill="#4b6174" transform="rotate(-22 1078.4166666666667 652)" dominant-baseline="hanging">st4000</text><text x="1182.25" y="652" text-anchor="end" font-size="12" font-weight="700" letter-spacing="0" fill="#4b6174" transform="rotate(-22 1182.25 652)" dominant-baseline="hanging">wd10eads</text><text x="1286.0833333333333" y="652" text-anchor="end" font-size="12" font-weight="700" letter-spacing="0" fill="#4b6174" transform="rotate(-22 1286.0833333333333 652)" dominant-baseline="hanging">wd30efrx</text></svg>