<svg xmlns="http://www.w3.org/2000/svg" id="fig-mc1-phase2" viewBox="0 0 1200 700" role="img" aria-label="MC1 phase 2 quality comparison" style="font-family: 'Segoe UI', 'Helvetica Neue', Arial, sans-serif;"><rect x="0" y="0" width="1200" height="700" fill="#ffffff"/><text x="600" y="36" text-anchor="middle" font-size="28" font-weight="700" fill="#163043">MC1 Phase 2 Quality Comparison</text><text x="331" y="76" font-size="14" font-weight="700" fill="#163043">Models</text><rect x="401" y="66" width="18" height="12" rx="4" fill="#375a7f"/><text x="429" y="76" font-size="14" font-weight="600" fill="#4b6174">Qwen3-Instruct</text><rect x="557" y="66" width="18" height="12" rx="4" fill="#c97b2a"/><text x="585" y="76" font-size="14" font-weight="600" fill="#4b6174">Qwen3.5-4B</text><rect x="713" y="66" width="18" height="12" rx="4" fill="#2d936c"/><text x="741" y="76" font-size="14" font-weight="600" fill="#4b6174">Qwen3.5-Plus</text><rect x="26" y="108" width="560" height="560" rx="22" fill="#ffffff" stroke="#d9e0e7" stroke-width="1.5"/><text x="50" y="142" font-size="24" font-weight="700" fill="#163043"><tspan x="50" dy="0">Coverage Quality</tspan></text><text x="50" y="188" font-size="15" fill="#4b6174"><tspan x="50" dy="0">Coverage metrics across the three</tspan><tspan x="50" dy="20">candidate models</tspan></text><rect x="614" y="108" width="560" height="560" rx="22" fill="#ffffff" stroke="#d9e0e7" stroke-width="1.5"/><text x="638" y="142" font-size="24" font-weight="700" fill="#163043"><tspan x="638" dy="0">Scalar Quality Scores</tspan></text><text x="638" y="188" font-size="15" fill="#4b6174"><tspan x="638" dy="0">Confidence, risk hint, and llm_q_score</tspan></text><line x1="86" y1="276" x2="86" y2="584" stroke="#163043" stroke-width="1.6"/><line x1="86" y1="584" x2="554" y2="584" stroke="#d9e0e7" stroke-width="1"/><text x="74" y="589" text-anchor="end" font-size="13" fill="#4b6174">0</text><line x1="86" y1="522.4" x2="554" y2="522.4" stroke="#d9e0e7" stroke-width="1"/><text x="74" y="527.4" text-anchor="end" font-size="13" fill="#4b6174">20</text><line x1="86" y1="460.8" x2="554" y2="460.8" stroke="#d9e0e7" stroke-width="1"/><text x="74" y="465.8" text-anchor="end" font-size="13" fill="#4b6174">40</text><line x1="86" y1="399.2" x2="554" y2="399.2" stroke="#d9e0e7" stroke-width="1"/><text x="74" y="404.2" text-anchor="end" font-size="13" fill="#4b6174">60</text><line x1="86" y1="337.6" x2="554" y2="337.6" stroke="#d9e0e7" stroke-width="1"/><text x="74" y="342.6" text-anchor="end" font-size="13" fill="#4b6174">80</text><line x1="86" y1="276" x2="554" y2="276" stroke="#d9e0e7" stroke-width="1"/><text x="74" y="281" text-anchor="end" font-size="13" fill="#4b6174">100</text><rect x="142" y="557.9894" width="34" height="26.010599999999954" rx="8" fill="#375a7f"/><text x="159" y="547.9894" text-anchor="middle" font-size="11" fill="#375a7f">8.4</text><rect x="186" y="560.7306" width="34" height="23.26940000000002" rx="8" fill="#c97b2a"/><text x="203" y="550.7306" text-anchor="middle" font-size="11" fill="#c97b2a">7.6</text><rect x="230" y="560.361" width="34" height="23.63900000000001" rx="8" fill="#2d936c"/><text x="247" y="550.361" text-anchor="middle" font-size="11" fill="#2d936c">7.7</text><text x="203" y="612" text-anchor="middle" font-size="13" font-weight="700" fill="#4b6174"><tspan x="203" dy="0">Non-unknown %</tspan></text><rect x="376" y="304.413" width="34" height="279.587" rx="8" fill="#375a7f"/><text x="393" y="294.413" text-anchor="middle" font-size="11" fill="#375a7f">90.8</text><rect x="420" y="345.4232" width="34" height="238.5768" rx="8" fill="#c97b2a"/><text x="437" y="335.4232" text-anchor="middle" font-size="11" fill="#c97b2a">77.5</text><rect x="464" y="306.1994" width="34" height="277.8006" rx="8" fill="#2d936c"/><text x="481" y="296.1994" text-anchor="middle" font-size="11" fill="#2d936c">90.2</text><text x="437" y="612" text-anchor="middle" font-size="13" font-weight="700" fill="#4b6174"><tspan x="437" dy="0">Mapped event %</tspan></text><line x1="674" y1="256" x2="674" y2="584" stroke="#163043" stroke-width="1.6"/><line x1="674" y1="584" x2="1142" y2="584" stroke="#d9e0e7" stroke-width="1"/><text x="662" y="589" text-anchor="end" font-size="13" fill="#4b6174">0.0</text><line x1="674" y1="518.4" x2="1142" y2="518.4" stroke="#d9e0e7" stroke-width="1"/><text x="662" y="523.4" text-anchor="end" font-size="13" fill="#4b6174">0.2</text><line x1="674" y1="452.8" x2="1142" y2="452.8" stroke="#d9e0e7" stroke-width="1"/><text x="662" y="457.8" text-anchor="end" font-size="13" fill="#4b6174">0.4</text><line x1="674" y1="387.2" x2="1142" y2="387.2" stroke="#d9e0e7" stroke-width="1"/><text x="662" y="392.2" text-anchor="end" font-size="13" fill="#4b6174">0.6</text><line x1="674" y1="321.6" x2="1142" y2="321.6" stroke="#d9e0e7" stroke-width="1"/><text x="662" y="326.6" text-anchor="end" font-size="13" fill="#4b6174">0.8</text><line x1="674" y1="256" x2="1142" y2="256" stroke="#d9e0e7" stroke-width="1"/><text x="662" y="261" text-anchor="end" font-size="13" fill="#4b6174">1.0</text><rect x="693" y="303.662336" width="34" height="280.337664" rx="6" fill="#375a7f"/><text x="710" y="295.662336" text-anchor="middle" font-size="11" fill="#375a7f">0.855</text><rect x="735" y="510.290528" width="34" height="73.709472" rx="6" fill="#c97b2a"/><text x="752" y="502.290528" text-anchor="middle" font-size="11" fill="#c97b2a">0.225</text><rect x="777" y="461.747512" width="34" height="122.25248800000003" rx="6" fill="#2d936c"/><text x="794" y="453.747512" text-anchor="middle" font-size="11" fill="#2d936c">0.373</text><text x="752" y="612" text-anchor="middle" font-size="13" font-weight="700" fill="#4b6174">Confidence</text><rect x="849" y="350.0376" width="34" height="233.9624" rx="6" fill="#375a7f"/><text x="866" y="342.0376" text-anchor="middle" font-size="11" fill="#375a7f">0.713</text><rect x="891" y="514.95764" width="34" height="69.04236000000003" rx="6" fill="#c97b2a"/><text x="908" y="506.95763999999997" text-anchor="middle" font-size="11" fill="#c97b2a">0.210</text><rect x="933" y="492.853392" width="34" height="91.14660800000001" rx="6" fill="#2d936c"/><text x="950" y="484.853392" text-anchor="middle" font-size="11" fill="#2d936c">0.278</text><text x="908" y="612" text-anchor="middle" font-size="13" font-weight="700" fill="#4b6174">Risk hint</text><rect x="1005" y="436.28749600000003" width="34" height="147.71250399999997" rx="6" fill="#375a7f"/><text x="1022" y="428.28749600000003" text-anchor="middle" font-size="11" fill="#375a7f">0.450</text><rect x="1047" y="502.982688" width="34" height="81.017312" rx="6" fill="#c97b2a"/><text x="1064" y="494.982688" text-anchor="middle" font-size="11" fill="#c97b2a">0.247</text><rect x="1089" y="486.442632" width="34" height="97.557368" rx="6" fill="#2d936c"/><text x="1106" y="478.442632" text-anchor="middle" font-size="11" fill="#2d936c">0.297</text><text x="1064" y="612" text-anchor="middle" font-size="13" font-weight="700" fill="#4b6174">llm_q_score</text></svg>