<svg xmlns="http://www.w3.org/2000/svg" id="fig-hdd-summary" viewBox="0 0 1200 640" role="img" aria-label="HDD cross model summary" style="font-family: 'Segoe UI', 'Helvetica Neue', Arial, sans-serif;"><rect x="0" y="0" width="1200" height="640" fill="#ffffff"/><text x="600" y="36" text-anchor="middle" font-size="28" font-weight="700" fill="#163043">HDD Cross-Model Summary</text><text x="331" y="76" font-size="14" font-weight="700" fill="#163043">Models</text><rect x="401" y="66" width="18" height="12" rx="4" fill="#375a7f"/><text x="429" y="76" font-size="14" font-weight="600" fill="#4b6174">Qwen3-Instruct</text><rect x="557" y="66" width="18" height="12" rx="4" fill="#c97b2a"/><text x="585" y="76" font-size="14" font-weight="600" fill="#4b6174">Qwen3.5-4B</text><rect x="713" y="66" width="18" height="12" rx="4" fill="#2d936c"/><text x="741" y="76" font-size="14" font-weight="600" fill="#4b6174">Qwen3.5-Plus</text><rect x="26" y="108" width="560" height="504" rx="22" fill="#ffffff" stroke="#d9e0e7" stroke-width="1.5"/><text x="50" y="142" font-size="24" font-weight="700" fill="#163043"><tspan x="50" dy="0">Enabled HDD Models</tspan></text><text x="50" y="188" font-size="15" fill="#4b6174"><tspan x="50" dy="0">Count of accepted HDD models under the</tspan><tspan x="50" dy="20">retained guard</tspan></text><rect x="614" y="108" width="560" height="504" rx="22" fill="#ffffff" stroke="#d9e0e7" stroke-width="1.5"/><text x="638" y="142" font-size="24" font-weight="700" fill="#163043"><tspan x="638" dy="0">Average Delta Recall</tspan></text><text x="638" y="188" font-size="15" fill="#4b6174"><tspan x="638" dy="0">Average Delta Recall on accepted HDD</tspan><tspan x="638" dy="20">models</tspan></text><line x1="86" y1="276" x2="86" y2="532" stroke="#163043" stroke-width="1.6"/><line x1="86" y1="532" x2="554" y2="532" stroke="#d9e0e7" stroke-width="1"/><text x="74" y="537" text-anchor="end" font-size="13" fill="#4b6174">0</text><line x1="86" y1="480.8" x2="554" y2="480.8" stroke="#d9e0e7" stroke-width="1"/><text x="74" y="485.8" text-anchor="end" font-size="13" fill="#4b6174">2</text><line x1="86" y1="429.6" x2="554" y2="429.6" stroke="#d9e0e7" stroke-width="1"/><text x="74" y="434.6" text-anchor="end" font-size="13" fill="#4b6174">4</text><line x1="86" y1="378.4" x2="554" y2="378.4" stroke="#d9e0e7" stroke-width="1"/><text x="74" y="383.4" text-anchor="end" font-size="13" fill="#4b6174">6</text><line x1="86" y1="327.2" x2="554" y2="327.2" stroke="#d9e0e7" stroke-width="1"/><text x="74" y="332.2" text-anchor="end" font-size="13" fill="#4b6174">8</text><line x1="86" y1="276" x2="554" y2="276" stroke="#d9e0e7" stroke-width="1"/><text x="74" y="281" text-anchor="end" font-size="13" fill="#4b6174">10</text><line x1="674" y1="276" x2="674" y2="532" stroke="#163043" stroke-width="1.6"/><line x1="674" y1="532" x2="1142" y2="532" stroke="#d9e0e7" stroke-width="1"/><text x="662" y="537" text-anchor="end" font-size="13" fill="#4b6174">0</text><line x1="674" y1="489.3333333333333" x2="1142" y2="489.3333333333333" stroke="#d9e0e7" stroke-width="1"/><text x="662" y="494.3333333333333" text-anchor="end" font-size="13" fill="#4b6174">4</text><line x1="674" y1="446.6666666666667" x2="1142" y2="446.6666666666667" stroke="#d9e0e7" stroke-width="1"/><text x="662" y="451.6666666666667" text-anchor="end" font-size="13" fill="#4b6174">8</text><line x1="674" y1="404" x2="1142" y2="404" stroke="#d9e0e7" stroke-width="1"/><text x="662" y="409" text-anchor="end" font-size="13" fill="#4b6174">12</text><line x1="674" y1="361.33333333333337" x2="1142" y2="361.33333333333337" stroke="#d9e0e7" stroke-width="1"/><text x="662" y="366.33333333333337" text-anchor="end" font-size="13" fill="#4b6174">16</text><line x1="674" y1="318.66666666666663" x2="1142" y2="318.66666666666663" stroke="#d9e0e7" stroke-width="1"/><text x="662" y="323.66666666666663" text-anchor="end" font-size="13" fill="#4b6174">20</text><line x1="674" y1="276" x2="1142" y2="276" stroke="#d9e0e7" stroke-width="1"/><text x="662" y="281" text-anchor="end" font-size="13" fill="#4b6174">24</text><rect x="104" y="327.2" width="132" height="204.8" rx="10" fill="#375a7f"/><text x="170" y="317.2" text-anchor="middle" font-size="14" font-weight="700" fill="#375a7f">8</text><rect x="254" y="352.8" width="132" height="179.2" rx="10" fill="#c97b2a"/><text x="320" y="342.8" text-anchor="middle" font-size="14" font-weight="700" fill="#c97b2a">7</text><rect x="404" y="352.8" width="132" height="179.2" rx="10" fill="#2d936c"/><text x="470" y="342.8" text-anchor="middle" font-size="14" font-weight="700" fill="#2d936c">7</text><text x="170" y="560" text-anchor="middle" font-size="13" font-weight="700" letter-spacing="0" fill="#4b6174"><tspan x="170" dy="0">Qwen3</tspan><tspan x="170" dy="15">Instruct</tspan></text><text x="320" y="560" text-anchor="middle" font-size="13" font-weight="700" letter-spacing="0" fill="#4b6174"><tspan x="320" dy="0">Qwen3.5-4B</tspan></text><text x="470" y="560" text-anchor="middle" font-size="13" font-weight="700" letter-spacing="0" fill="#4b6174"><tspan x="470" dy="0">Qwen3.5</tspan><tspan x="470" dy="15">Plus</tspan></text><rect x="692" y="339.03679999999997" width="132" height="192.96320000000003" rx="10" fill="#375a7f"/><text x="758" y="329.03679999999997" text-anchor="middle" font-size="14" font-weight="700" fill="#375a7f">18.09</text><rect x="842" y="327.1136" width="132" height="204.88639999999998" rx="10" fill="#c97b2a"/><text x="908" y="317.1136" text-anchor="middle" font-size="14" font-weight="700" fill="#c97b2a">19.21</text><rect x="992" y="317.04533333333336" width="132" height="214.95466666666664" rx="10" fill="#2d936c"/><text x="1058" y="307.04533333333336" text-anchor="middle" font-size="14" font-weight="700" fill="#2d936c">20.15</text><text x="758" y="560" text-anchor="middle" font-size="13" font-weight="700" letter-spacing="0" fill="#4b6174"><tspan x="758" dy="0">Qwen3</tspan><tspan x="758" dy="15">Instruct</tspan></text><text x="908" y="560" text-anchor="middle" font-size="13" font-weight="700" letter-spacing="0" fill="#4b6174"><tspan x="908" dy="0">Qwen3.5-4B</tspan></text><text x="1058" y="560" text-anchor="middle" font-size="13" font-weight="700" letter-spacing="0" fill="#4b6174"><tspan x="1058" dy="0">Qwen3.5</tspan><tspan x="1058" dy="15">Plus</tspan></text></svg>