<svg xmlns="http://www.w3.org/2000/svg" id="fig-phase-flow" viewBox="0 0 1400 800" role="img" aria-label="Phase 1 to Phase 3 dataflow" style="font-family: 'Segoe UI', 'Helvetica Neue', Arial, sans-serif;"><rect x="0" y="0" width="1400" height="800" fill="#ffffff"/>
          <defs>
            <marker id="arrow-flow" viewBox="0 0 10 10" refX="9" refY="5" markerWidth="8" markerHeight="8" orient="auto-start-reverse">
              <path d="M 0 0 L 10 5 L 0 10 z" fill="#163043"/>
            </marker>
            <marker id="arrow-red" viewBox="0 0 10 10" refX="9" refY="5" markerWidth="8" markerHeight="8" orient="auto-start-reverse">
              <path d="M 0 0 L 10 5 L 0 10 z" fill="#bc4b51"/>
            </marker>
          </defs>

          <rect x="34" y="130" width="190" height="448" rx="28" fill="#e8eff6"/>
          <rect x="252" y="70" width="252" height="576" rx="30" fill="#f8ecdd"/>
          <rect x="548" y="70" width="252" height="576" rx="30" fill="#f8ecdd"/>
          <rect x="844" y="70" width="252" height="576" rx="30" fill="#f8ecdd"/>
          <rect x="1134" y="130" width="224" height="448" rx="28" fill="#e6f3ee"/>

          <text x="129" y="178" text-anchor="middle" font-size="26" font-weight="700" fill="#163043">Input</text>
          <text x="378" y="116" text-anchor="middle" font-size="26" font-weight="700" fill="#163043">Phase 1</text>
          <text x="674" y="116" text-anchor="middle" font-size="26" font-weight="700" fill="#163043">Phase 2</text>
          <text x="970" y="116" text-anchor="middle" font-size="26" font-weight="700" fill="#163043">Phase 3</text>
          <text x="1246" y="178" text-anchor="middle" font-size="26" font-weight="700" fill="#163043">Decision</text>

          <rect x="60" y="224" width="138" height="154" rx="22" fill="#fff" stroke="#375a7f" stroke-width="2.5"/>
          <text x="129" y="282" text-anchor="middle" font-size="19" font-weight="700" fill="#163043">
            <tspan x="129" dy="0">Windowed</tspan>
            <tspan x="129" dy="28">SMART</tspan>
            <tspan x="129" dy="28">records</tspan>
          </text>

          <rect x="286" y="164" width="184" height="126" rx="24" fill="#fff" stroke="#c97b2a" stroke-width="2.5"/>
          <text x="378" y="214" text-anchor="middle" font-size="21" font-weight="700" fill="#163043">
            <tspan x="378" dy="0">Structured</tspan>
            <tspan x="378" dy="30">summarization</tspan>
          </text>
          <text x="378" y="272" text-anchor="middle" font-size="16" fill="#4b6174">summary_text</text>

          <rect x="286" y="352" width="184" height="140" rx="24" fill="#fff" stroke="#c97b2a" stroke-width="2.5"/>
          <text x="378" y="402" text-anchor="middle" font-size="22" font-weight="700" fill="#163043">Artifacts</text>
          <text x="378" y="434" text-anchor="middle" font-size="18" fill="#4b6174">summary_text</text>
          <text x="378" y="462" text-anchor="middle" font-size="18" fill="#4b6174">reference_pool</text>

          <rect x="582" y="164" width="184" height="138" rx="24" fill="#fff" stroke="#c97b2a" stroke-width="2.5"/>
          <text x="674" y="214" text-anchor="middle" font-size="21" font-weight="700" fill="#163043">
            <tspan x="674" dy="0">Offline LLM</tspan>
            <tspan x="674" dy="30">extraction</tspan>
          </text>
          <text x="674" y="264" text-anchor="middle" font-size="15" fill="#4b6174">
            <tspan x="674" dy="0">cause, events,</tspan>
            <tspan x="674" dy="17">confidence</tspan>
          </text>

          <rect x="582" y="352" width="184" height="176" rx="24" fill="#fff" stroke="#c97b2a" stroke-width="2.5"/>
          <text x="674" y="400" text-anchor="middle" font-size="22" font-weight="700" fill="#163043">Semantic cache</text>
          <text x="674" y="434" text-anchor="middle" font-size="18" fill="#4b6174">cache_*.jsonl</text>
          <text x="674" y="462" text-anchor="middle" font-size="18" fill="#4b6174">z_llm_*</text>
          <text x="674" y="490" text-anchor="middle" font-size="18" fill="#4b6174">llm_q_score</text>

          <rect x="878" y="164" width="184" height="138" rx="24" fill="#fff" stroke="#c97b2a" stroke-width="2.5"/>
          <text x="970" y="214" text-anchor="middle" font-size="21" font-weight="700" fill="#163043">
            <tspan x="970" dy="0">Gating and</tspan>
            <tspan x="970" dy="30">selection</tspan>
          </text>
          <text x="970" y="264" text-anchor="middle" font-size="15" fill="#4b6174">
            <tspan x="970" dy="0">quality / severity /</tspan>
            <tspan x="970" dy="17">rule match</tspan>
          </text>

          <rect x="878" y="352" width="184" height="176" rx="24" fill="#fff" stroke="#c97b2a" stroke-width="2.5"/>
          <text x="970" y="400" text-anchor="middle" font-size="22" font-weight="700" fill="#163043">Profiles</text>
          <text x="970" y="434" text-anchor="middle" font-size="18" fill="#4b6174">compact9</text>
          <text x="970" y="462" text-anchor="middle" font-size="18" fill="#4b6174">compact14</text>
          <text x="970" y="490" text-anchor="middle" font-size="18" fill="#4b6174">full70</text>

          <rect x="1170" y="224" width="152" height="118" rx="22" fill="#fff" stroke="#2d936c" stroke-width="2.5"/>
          <text x="1246" y="272" text-anchor="middle" font-size="20" font-weight="700" fill="#163043">
            <tspan x="1246" dy="0">Final</tspan>
            <tspan x="1246" dy="28">evaluation</tspan>
          </text>
          <text x="1246" y="328" text-anchor="middle" font-size="16" fill="#4b6174">Recall / ACC</text>

          <rect x="1170" y="390" width="152" height="138" rx="22" fill="#fff" stroke="#2d936c" stroke-width="2.5"/>
          <text x="1246" y="438" text-anchor="middle" font-size="21" font-weight="700" fill="#163043">Policy</text>
          <text x="1246" y="468" text-anchor="middle" font-size="18" fill="#2d936c">llm_enabled</text>
          <text x="1246" y="498" text-anchor="middle" font-size="18" fill="#4b6174">or fallback</text>

          <line x1="198" y1="301" x2="286" y2="301" stroke="#163043" stroke-width="4.5" marker-end="url(#arrow-flow)"/>
          <line x1="470" y1="301" x2="582" y2="301" stroke="#163043" stroke-width="4.5" marker-end="url(#arrow-flow)"/>
          <line x1="766" y1="301" x2="878" y2="301" stroke="#163043" stroke-width="4.5" marker-end="url(#arrow-flow)"/>
          <line x1="1062" y1="301" x2="1170" y2="301" stroke="#163043" stroke-width="4.5" marker-end="url(#arrow-flow)"/>
          <line x1="1246" y1="342" x2="1246" y2="390" stroke="#2d936c" stroke-width="4.5" marker-end="url(#arrow-flow)"/>

          <path d="M 970 528 C 970 616, 674 656, 382 656 C 270 656, 172 632, 110 576" fill="none" stroke="#375a7f" stroke-width="4" stroke-dasharray="10 8" marker-end="url(#arrow-flow)"/>
          <rect x="446" y="700" width="456" height="56" rx="18" fill="#ffffff" opacity="0.96" stroke="#d9e0e7"/>
          <text x="674" y="724" text-anchor="middle" font-size="18" fill="#375a7f" font-weight="700">
            <tspan x="674" dy="0">Same downstream predictor as the</tspan>
            <tspan x="674" dy="22">no-LLM baseline</tspan>
          </text>

          <rect x="258" y="558" width="238" height="108" rx="20" fill="#f9e4e6" stroke="#bc4b51" stroke-width="2.5"/>
          <text x="377" y="596" text-anchor="middle" font-size="22" font-weight="700" fill="#bc4b51">mc1 diagnosis</text>
          <text x="377" y="620" text-anchor="middle" font-size="16" fill="#7f3840">
            <tspan x="377" dy="0">Failure traced to faulty</tspan>
            <tspan x="377" dy="18">input sampling</tspan>
          </text>
          <path d="M 377 558 C 377 522, 377 506, 377 492" fill="none" stroke="#bc4b51" stroke-width="4" marker-end="url(#arrow-red)"/>
        </svg>